<svg xmlns="http://www.w3.org/2000/svg" version="1.1" xmlns:xlink="http://www.w3.org/1999/xlink" xmlns:svgjs="http://svgjs.dev/svgjs" width="1440" height="560" preserveAspectRatio="none" viewBox="0 0 1440 560"><g mask="url(&quot;#SvgjsMask1480&quot;)" fill="none"><rect width="1440" height="560" x="0" y="0" fill="url(&quot;#SvgjsRadialGradient1481&quot;)"></rect><path d="M-55.25 398.32L-55.25 398.32" stroke="rgba(197, 14, 134, 1)" stroke-width="1.5"></path><path d="M-55.25 398.32L-41.73 529.86" stroke="rgba(197, 14, 134, 1)" stroke-width="1.5"></path><path d="M-55.25 398.32L87.24 341.78" stroke="rgba(197, 14, 134, 1)" stroke-width="1.5"></path><path d="M-55.25 398.32L40.47 552.05" stroke="rgba(197, 14, 134, 1)" stroke-width="1.5"></path><path d="M-41.73 529.86L-41.73 529.86" stroke="rgba(197, 14, 134, 1)" stroke-width="1.5"></path><path d="M-41.73 529.86L40.47 552.05" stroke="rgba(197, 14, 134, 1)" stroke-width="1.5"></path><path d="M-41.73 529.86L-75.62 698.41" stroke="rgba(197, 14, 134, 1)" stroke-width="1.5"></path><path d="M-75.62 698.41L-75.62 698.41" stroke="rgba(197, 14, 134, 1)" stroke-width="1.5"></path><path d="M-75.62 698.41L106.28 681.44" stroke="rgba(197, 14, 134, 1)" stroke-width="1.5"></path><path d="M-75.62 698.41L40.47 552.05" stroke="rgba(197, 14, 134, 1)" stroke-width="1.5"></path><path d="M-75.62 698.41L199.54 648.41" stroke="rgba(197, 14, 134, 1)" stroke-width="1.5"></path><path d="M-75.62 698.41L-55.25 398.32" stroke="rgba(197, 14, 134, 1)" stroke-width="1.5"></path><path d="M87.24 341.78L87.24 341.78" stroke="rgba(197, 14, 134, 1)" stroke-width="1.5"></path><path d="M87.24 341.78L245.22 405.81" stroke="rgba(197, 14, 134, 1)" stroke-width="1.5"></path><path d="M87.24 341.78L40.47 552.05" stroke="rgba(197, 14, 134, 1)" stroke-width="1.5"></path><path d="M87.24 341.78L-41.73 529.86" stroke="rgba(197, 14, 134, 1)" stroke-width="1.5"></path><path d="M40.47 552.05L40.47 552.05" stroke="rgba(197, 14, 134, 1)" stroke-width="1.5"></path><path d="M40.47 552.05L106.28 681.44" stroke="rgba(197, 14, 134, 1)" stroke-width="1.5"></path><path d="M40.47 552.05L199.54 648.41" stroke="rgba(197, 14, 134, 1)" stroke-width="1.5"></path><path d="M106.28 681.44L106.28 681.44" stroke="rgba(197, 14, 134, 1)" stroke-width="1.5"></path><path d="M106.28 681.44L199.54 648.41" stroke="rgba(197, 14, 134, 1)" stroke-width="1.5"></path><path d="M245.22 405.81L245.22 405.81" stroke="rgba(197, 14, 134, 1)" stroke-width="1.5"></path><path d="M245.22 405.81L245.59 520.1" stroke="rgba(197, 14, 134, 1)" stroke-width="1.5"></path><path d="M245.22 405.81L378.57 337.55" stroke="rgba(197, 14, 134, 1)" stroke-width="1.5"></path><path d="M245.22 405.81L199.54 648.41" stroke="rgba(197, 14, 134, 1)" stroke-width="1.5"></path><path d="M245.59 520.1L245.59 520.1" stroke="rgba(197, 14, 134, 1)" stroke-width="1.5"></path><path d="M245.59 520.1L199.54 648.41" stroke="rgba(197, 14, 134, 1)" stroke-width="1.5"></path><path d="M245.59 520.1L354.79 667.69" stroke="rgba(197, 14, 134, 1)" stroke-width="1.5"></path><path d="M245.59 520.1L40.47 552.05" stroke="rgba(197, 14, 134, 1)" stroke-width="1.5"></path><path d="M245.59 520.1L106.28 681.44" stroke="rgba(197, 14, 134, 1)" stroke-width="1.5"></path><path d="M245.59 520.1L378.57 337.55" stroke="rgba(197, 14, 134, 1)" stroke-width="1.5"></path><path d="M199.54 648.41L199.54 648.41" stroke="rgba(197, 14, 134, 1)" stroke-width="1.5"></path><path d="M199.54 648.41L354.79 667.69" stroke="rgba(197, 14, 134, 1)" stroke-width="1.5"></path><path d="M199.54 648.41L-41.73 529.86" stroke="rgba(197, 14, 134, 1)" stroke-width="1.5"></path><path d="M378.57 337.55L378.57 337.55" stroke="rgba(197, 14, 134, 1)" stroke-width="1.5"></path><path d="M378.57 337.55L521.9 405.7" stroke="rgba(197, 14, 134, 1)" stroke-width="1.5"></path><path d="M378.57 337.55L530.04 501.26" stroke="rgba(197, 14, 134, 1)" stroke-width="1.5"></path><path d="M378.57 337.55L638.73 229.07" stroke="rgba(197, 14, 134, 1)" stroke-width="1.5"></path><path d="M378.57 337.55L87.24 341.78" stroke="rgba(197, 14, 134, 1)" stroke-width="1.5"></path><path d="M354.79 667.69L354.79 667.69" stroke="rgba(197, 14, 134, 1)" stroke-width="1.5"></path><path d="M354.79 667.69L516.05 668.61" stroke="rgba(197, 14, 134, 1)" stroke-width="1.5"></path><path d="M521.9 405.7L521.9 405.7" stroke="rgba(197, 14, 134, 1)" stroke-width="1.5"></path><path d="M521.9 405.7L530.04 501.26" stroke="rgba(197, 14, 134, 1)" stroke-width="1.5"></path><path d="M521.9 405.7L646.9 504.27" stroke="rgba(197, 14, 134, 1)" stroke-width="1.5"></path><path d="M521.9 405.7L702.11 348.11" stroke="rgba(197, 14, 134, 1)" stroke-width="1.5"></path><path d="M521.9 405.7L638.73 229.07" stroke="rgba(197, 14, 134, 1)" stroke-width="1.5"></path><path d="M530.04 501.26L530.04 501.26" stroke="rgba(197, 14, 134, 1)" stroke-width="1.5"></path><path d="M530.04 501.26L646.9 504.27" stroke="rgba(197, 14, 134, 1)" stroke-width="1.5"></path><path d="M530.04 501.26L516.05 668.61" stroke="rgba(197, 14, 134, 1)" stroke-width="1.5"></path><path d="M516.05 668.61L516.05 668.61" stroke="rgba(197, 14, 134, 1)" stroke-width="1.5"></path><path d="M516.05 668.61L686.08 644.38" stroke="rgba(197, 14, 134, 1)" stroke-width="1.5"></path><path d="M516.05 668.61L646.9 504.27" stroke="rgba(197, 14, 134, 1)" stroke-width="1.5"></path><path d="M516.05 668.61L521.9 405.7" stroke="rgba(197, 14, 134, 1)" stroke-width="1.5"></path><path d="M638.73 229.07L638.73 229.07" stroke="rgba(197, 14, 134, 1)" stroke-width="1.5"></path><path d="M638.73 229.07L702.11 348.11" stroke="rgba(197, 14, 134, 1)" stroke-width="1.5"></path><path d="M702.11 348.11L702.11 348.11" stroke="rgba(197, 14, 134, 1)" stroke-width="1.5"></path><path d="M702.11 348.11L830.49 409.78" stroke="rgba(197, 14, 134, 1)" stroke-width="1.5"></path><path d="M702.11 348.11L646.9 504.27" stroke="rgba(197, 14, 134, 1)" stroke-width="1.5"></path><path d="M702.11 348.11L856.64 229.62" stroke="rgba(197, 14, 134, 1)" stroke-width="1.5"></path><path d="M646.9 504.27L646.9 504.27" stroke="rgba(197, 14, 134, 1)" stroke-width="1.5"></path><path d="M646.9 504.27L686.08 644.38" stroke="rgba(197, 14, 134, 1)" stroke-width="1.5"></path><path d="M646.9 504.27L830.49 409.78" stroke="rgba(197, 14, 134, 1)" stroke-width="1.5"></path><path d="M686.08 644.38L686.08 644.38" stroke="rgba(197, 14, 134, 1)" stroke-width="1.5"></path><path d="M686.08 644.38L811.62 672.6" stroke="rgba(197, 14, 134, 1)" stroke-width="1.5"></path><path d="M834.11 106.73L834.11 106.73" stroke="rgba(197, 14, 134, 1)" stroke-width="1.5"></path><path d="M834.11 106.73L939.31 105.98" stroke="rgba(197, 14, 134, 1)" stroke-width="1.5"></path><path d="M834.11 106.73L856.64 229.62" stroke="rgba(197, 14, 134, 1)" stroke-width="1.5"></path><path d="M856.64 229.62L856.64 229.62" stroke="rgba(197, 14, 134, 1)" stroke-width="1.5"></path><path d="M856.64 229.62L958.58 194.93" stroke="rgba(197, 14, 134, 1)" stroke-width="1.5"></path><path d="M856.64 229.62L939.31 105.98" stroke="rgba(197, 14, 134, 1)" stroke-width="1.5"></path><path d="M856.64 229.62L830.49 409.78" stroke="rgba(197, 14, 134, 1)" stroke-width="1.5"></path><path d="M856.64 229.62L986.66 395.25" stroke="rgba(197, 14, 134, 1)" stroke-width="1.5"></path><path d="M830.49 409.78L830.49 409.78" stroke="rgba(197, 14, 134, 1)" stroke-width="1.5"></path><path d="M830.49 409.78L986.66 395.25" stroke="rgba(197, 14, 134, 1)" stroke-width="1.5"></path><path d="M811.62 672.6L811.62 672.6" stroke="rgba(197, 14, 134, 1)" stroke-width="1.5"></path><path d="M811.62 672.6L1009.81 637.51" stroke="rgba(197, 14, 134, 1)" stroke-width="1.5"></path><path d="M811.62 672.6L966.08 509.83" stroke="rgba(197, 14, 134, 1)" stroke-width="1.5"></path><path d="M811.62 672.6L646.9 504.27" stroke="rgba(197, 14, 134, 1)" stroke-width="1.5"></path><path d="M811.62 672.6L830.49 409.78" stroke="rgba(197, 14, 134, 1)" stroke-width="1.5"></path><path d="M811.62 672.6L516.05 668.61" stroke="rgba(197, 14, 134, 1)" stroke-width="1.5"></path><path d="M996.94 -110.37L996.94 -110.37" stroke="rgba(197, 14, 134, 1)" stroke-width="1.5"></path><path d="M996.94 -110.37L1156.54 -80.46" stroke="rgba(197, 14, 134, 1)" stroke-width="1.5"></path><path d="M996.94 -110.37L939.31 105.98" stroke="rgba(197, 14, 134, 1)" stroke-width="1.5"></path><path d="M996.94 -110.37L1125.77 107.6" stroke="rgba(197, 14, 134, 1)" stroke-width="1.5"></path><path d="M996.94 -110.37L834.11 106.73" stroke="rgba(197, 14, 134, 1)" stroke-width="1.5"></path><path d="M996.94 -110.37L1295.17 -103.71" stroke="rgba(197, 14, 134, 1)" stroke-width="1.5"></path><path d="M996.94 -110.37L958.58 194.93" stroke="rgba(197, 14, 134, 1)" stroke-width="1.5"></path><path d="M939.31 105.98L939.31 105.98" stroke="rgba(197, 14, 134, 1)" stroke-width="1.5"></path><path d="M939.31 105.98L958.58 194.93" stroke="rgba(197, 14, 134, 1)" stroke-width="1.5"></path><path d="M939.31 105.98L1125.77 107.6" stroke="rgba(197, 14, 134, 1)" stroke-width="1.5"></path><path d="M939.31 105.98L1097.22 222.97" stroke="rgba(197, 14, 134, 1)" stroke-width="1.5"></path><path d="M958.58 194.93L958.58 194.93" stroke="rgba(197, 14, 134, 1)" stroke-width="1.5"></path><path d="M958.58 194.93L1097.22 222.97" stroke="rgba(197, 14, 134, 1)" stroke-width="1.5"></path><path d="M958.58 194.93L834.11 106.73" stroke="rgba(197, 14, 134, 1)" stroke-width="1.5"></path><path d="M958.58 194.93L1125.77 107.6" stroke="rgba(197, 14, 134, 1)" stroke-width="1.5"></path><path d="M986.66 395.25L986.66 395.25" stroke="rgba(197, 14, 134, 1)" stroke-width="1.5"></path><path d="M986.66 395.25L966.08 509.83" stroke="rgba(197, 14, 134, 1)" stroke-width="1.5"></path><path d="M986.66 395.25L1128.21 338.93" stroke="rgba(197, 14, 134, 1)" stroke-width="1.5"></path><path d="M966.08 509.83L966.08 509.83" stroke="rgba(197, 14, 134, 1)" stroke-width="1.5"></path><path d="M966.08 509.83L1093.64 549.19" stroke="rgba(197, 14, 134, 1)" stroke-width="1.5"></path><path d="M966.08 509.83L1009.81 637.51" stroke="rgba(197, 14, 134, 1)" stroke-width="1.5"></path><path d="M1009.81 637.51L1009.81 637.51" stroke="rgba(197, 14, 134, 1)" stroke-width="1.5"></path><path d="M1009.81 637.51L1093.64 549.19" stroke="rgba(197, 14, 134, 1)" stroke-width="1.5"></path><path d="M1009.81 637.51L1123.97 698.83" stroke="rgba(197, 14, 134, 1)" stroke-width="1.5"></path><path d="M1156.54 -80.46L1156.54 -80.46" stroke="rgba(197, 14, 134, 1)" stroke-width="1.5"></path><path d="M1156.54 -80.46L1295.17 -103.71" stroke="rgba(197, 14, 134, 1)" stroke-width="1.5"></path><path d="M1156.54 -80.46L1264.8 74.46" stroke="rgba(197, 14, 134, 1)" stroke-width="1.5"></path><path d="M1156.54 -80.46L1125.77 107.6" stroke="rgba(197, 14, 134, 1)" stroke-width="1.5"></path><path d="M1156.54 -80.46L1399.94 -51.76" stroke="rgba(197, 14, 134, 1)" stroke-width="1.5"></path><path d="M1156.54 -80.46L939.31 105.98" stroke="rgba(197, 14, 134, 1)" stroke-width="1.5"></path><path d="M1125.77 107.6L1125.77 107.6" stroke="rgba(197, 14, 134, 1)" stroke-width="1.5"></path><path d="M1125.77 107.6L1097.22 222.97" stroke="rgba(197, 14, 134, 1)" stroke-width="1.5"></path><path d="M1125.77 107.6L1264.8 74.46" stroke="rgba(197, 14, 134, 1)" stroke-width="1.5"></path><path d="M1097.22 222.97L1097.22 222.97" stroke="rgba(197, 14, 134, 1)" stroke-width="1.5"></path><path d="M1097.22 222.97L1128.21 338.93" stroke="rgba(197, 14, 134, 1)" stroke-width="1.5"></path><path d="M1128.21 338.93L1128.21 338.93" stroke="rgba(197, 14, 134, 1)" stroke-width="1.5"></path><path d="M1128.21 338.93L1264.51 391.8" stroke="rgba(197, 14, 134, 1)" stroke-width="1.5"></path><path d="M1093.64 549.19L1093.64 549.19" stroke="rgba(197, 14, 134, 1)" stroke-width="1.5"></path><path d="M1123.97 698.83L1123.97 698.83" stroke="rgba(197, 14, 134, 1)" stroke-width="1.5"></path><path d="M1123.97 698.83L1093.64 549.19" stroke="rgba(197, 14, 134, 1)" stroke-width="1.5"></path><path d="M1123.97 698.83L1288.16 529.64" stroke="rgba(197, 14, 134, 1)" stroke-width="1.5"></path><path d="M1123.97 698.83L966.08 509.83" stroke="rgba(197, 14, 134, 1)" stroke-width="1.5"></path><path d="M1123.97 698.83L1391.72 640.89" stroke="rgba(197, 14, 134, 1)" stroke-width="1.5"></path><path d="M1295.17 -103.71L1295.17 -103.71" stroke="rgba(197, 14, 134, 1)" stroke-width="1.5"></path><path d="M1295.17 -103.71L1399.94 -51.76" stroke="rgba(197, 14, 134, 1)" stroke-width="1.5"></path><path d="M1295.17 -103.71L1264.8 74.46" stroke="rgba(197, 14, 134, 1)" stroke-width="1.5"></path><path d="M1295.17 -103.71L1406.21 111.77" stroke="rgba(197, 14, 134, 1)" stroke-width="1.5"></path><path d="M1295.17 -103.71L1125.77 107.6" stroke="rgba(197, 14, 134, 1)" stroke-width="1.5"></path><path d="M1264.8 74.46L1264.8 74.46" stroke="rgba(197, 14, 134, 1)" stroke-width="1.5"></path><path d="M1264.8 74.46L1406.21 111.77" stroke="rgba(197, 14, 134, 1)" stroke-width="1.5"></path><path d="M1264.8 74.46L1399.94 -51.76" stroke="rgba(197, 14, 134, 1)" stroke-width="1.5"></path><path d="M1264.51 391.8L1264.51 391.8" stroke="rgba(197, 14, 134, 1)" stroke-width="1.5"></path><path d="M1264.51 391.8L1288.16 529.64" stroke="rgba(197, 14, 134, 1)" stroke-width="1.5"></path><path d="M1264.51 391.8L1439.94 392.86" stroke="rgba(197, 14, 134, 1)" stroke-width="1.5"></path><path d="M1264.51 391.8L1404.41 240.04" stroke="rgba(197, 14, 134, 1)" stroke-width="1.5"></path><path d="M1264.51 391.8L1434.75 511.87" stroke="rgba(197, 14, 134, 1)" stroke-width="1.5"></path><path d="M1288.16 529.64L1288.16 529.64" stroke="rgba(197, 14, 134, 1)" stroke-width="1.5"></path><path d="M1288.16 529.64L1434.75 511.87" stroke="rgba(197, 14, 134, 1)" stroke-width="1.5"></path><path d="M1288.16 529.64L1391.72 640.89" stroke="rgba(197, 14, 134, 1)" stroke-width="1.5"></path><path d="M1399.94 -51.76L1399.94 -51.76" stroke="rgba(197, 14, 134, 1)" stroke-width="1.5"></path><path d="M1399.94 -51.76L1406.21 111.77" stroke="rgba(197, 14, 134, 1)" stroke-width="1.5"></path><path d="M1399.94 -51.76L1610.25 -65.51" stroke="rgba(197, 14, 134, 1)" stroke-width="1.5"></path><path d="M1406.21 111.77L1406.21 111.77" stroke="rgba(197, 14, 134, 1)" stroke-width="1.5"></path><path d="M1406.21 111.77L1404.41 240.04" stroke="rgba(197, 14, 134, 1)" stroke-width="1.5"></path><path d="M1404.41 240.04L1404.41 240.04" stroke="rgba(197, 14, 134, 1)" stroke-width="1.5"></path><path d="M1404.41 240.04L1540.23 230.65" stroke="rgba(197, 14, 134, 1)" stroke-width="1.5"></path><path d="M1404.41 240.04L1439.94 392.86" stroke="rgba(197, 14, 134, 1)" stroke-width="1.5"></path><path d="M1439.94 392.86L1439.94 392.86" stroke="rgba(197, 14, 134, 1)" stroke-width="1.5"></path><path d="M1439.94 392.86L1434.75 511.87" stroke="rgba(197, 14, 134, 1)" stroke-width="1.5"></path><path d="M1439.94 392.86L1569.13 407.43" stroke="rgba(197, 14, 134, 1)" stroke-width="1.5"></path><path d="M1434.75 511.87L1434.75 511.87" stroke="rgba(197, 14, 134, 1)" stroke-width="1.5"></path><path d="M1434.75 511.87L1541.68 538.75" stroke="rgba(197, 14, 134, 1)" stroke-width="1.5"></path><path d="M1391.72 640.89L1391.72 640.89" stroke="rgba(197, 14, 134, 1)" stroke-width="1.5"></path><path d="M1391.72 640.89L1434.75 511.87" stroke="rgba(197, 14, 134, 1)" stroke-width="1.5"></path><path d="M1391.72 640.89L1541.68 538.75" stroke="rgba(197, 14, 134, 1)" stroke-width="1.5"></path><path d="M1391.72 640.89L1584.81 692.3" stroke="rgba(197, 14, 134, 1)" stroke-width="1.5"></path><path d="M1391.72 640.89L1439.94 392.86" stroke="rgba(197, 14, 134, 1)" stroke-width="1.5"></path><path d="M1610.25 -65.51L1610.25 -65.51" stroke="rgba(197, 14, 134, 1)" stroke-width="1.5"></path><path d="M1610.25 -65.51L1587.47 47.3" stroke="rgba(197, 14, 134, 1)" stroke-width="1.5"></path><path d="M1610.25 -65.51L1406.21 111.77" stroke="rgba(197, 14, 134, 1)" stroke-width="1.5"></path><path d="M1610.25 -65.51L1540.23 230.65" stroke="rgba(197, 14, 134, 1)" stroke-width="1.5"></path><path d="M1610.25 -65.51L1295.17 -103.71" stroke="rgba(197, 14, 134, 1)" stroke-width="1.5"></path><path d="M1587.47 47.3L1587.47 47.3" stroke="rgba(197, 14, 134, 1)" stroke-width="1.5"></path><path d="M1587.47 47.3L1540.23 230.65" stroke="rgba(197, 14, 134, 1)" stroke-width="1.5"></path><path d="M1587.47 47.3L1406.21 111.77" stroke="rgba(197, 14, 134, 1)" stroke-width="1.5"></path><path d="M1587.47 47.3L1399.94 -51.76" stroke="rgba(197, 14, 134, 1)" stroke-width="1.5"></path><path d="M1587.47 47.3L1404.41 240.04" stroke="rgba(197, 14, 134, 1)" stroke-width="1.5"></path><path d="M1587.47 47.3L1264.8 74.46" stroke="rgba(197, 14, 134, 1)" stroke-width="1.5"></path><path d="M1540.23 230.65L1540.23 230.65" stroke="rgba(197, 14, 134, 1)" stroke-width="1.5"></path><path d="M1540.23 230.65L1569.13 407.43" stroke="rgba(197, 14, 134, 1)" stroke-width="1.5"></path><path d="M1540.23 230.65L1406.21 111.77" stroke="rgba(197, 14, 134, 1)" stroke-width="1.5"></path><path d="M1569.13 407.43L1569.13 407.43" stroke="rgba(197, 14, 134, 1)" stroke-width="1.5"></path><path d="M1569.13 407.43L1541.68 538.75" stroke="rgba(197, 14, 134, 1)" stroke-width="1.5"></path><path d="M1569.13 407.43L1434.75 511.87" stroke="rgba(197, 14, 134, 1)" stroke-width="1.5"></path><path d="M1569.13 407.43L1404.41 240.04" stroke="rgba(197, 14, 134, 1)" stroke-width="1.5"></path><path d="M1541.68 538.75L1541.68 538.75" stroke="rgba(197, 14, 134, 1)" stroke-width="1.5"></path><path d="M1541.68 538.75L1584.81 692.3" stroke="rgba(197, 14, 134, 1)" stroke-width="1.5"></path><path d="M1541.68 538.75L1439.94 392.86" stroke="rgba(197, 14, 134, 1)" stroke-width="1.5"></path><path d="M1584.81 692.3L1584.81 692.3" stroke="rgba(197, 14, 134, 1)" stroke-width="1.5"></path><path d="M1584.81 692.3L1434.75 511.87" stroke="rgba(197, 14, 134, 1)" stroke-width="1.5"></path><path d="M1584.81 692.3L1569.13 407.43" stroke="rgba(197, 14, 134, 1)" stroke-width="1.5"></path><path d="M1584.81 692.3L1439.94 392.86" stroke="rgba(197, 14, 134, 1)" stroke-width="1.5"></path><path d="M1584.81 692.3L1288.16 529.64" stroke="rgba(197, 14, 134, 1)" stroke-width="1.5"></path><circle r="5" cx="-55.25" cy="398.32" fill="rgba(197, 14, 134, 1)"></circle><circle r="5" cx="-41.73" cy="529.86" fill="rgba(197, 14, 134, 1)"></circle><circle r="5" cx="-75.62" cy="698.41" fill="rgba(197, 14, 134, 1)"></circle><circle r="5" cx="87.24" cy="341.78" fill="rgba(197, 14, 134, 1)"></circle><circle r="5" cx="40.47" cy="552.05" fill="rgba(197, 14, 134, 1)"></circle><circle r="5" cx="106.28" cy="681.44" fill="rgba(197, 14, 134, 1)"></circle><circle r="5" cx="245.22" cy="405.81" fill="rgba(197, 14, 134, 1)"></circle><circle r="5" cx="245.59" cy="520.1" fill="rgba(197, 14, 134, 1)"></circle><circle r="5" cx="199.54" cy="648.41" fill="rgba(197, 14, 134, 1)"></circle><circle r="5" cx="378.57" cy="337.55" fill="rgba(197, 14, 134, 1)"></circle><circle r="5" cx="354.79" cy="667.69" fill="rgba(197, 14, 134, 1)"></circle><circle r="5" cx="521.9" cy="405.7" fill="rgba(197, 14, 134, 1)"></circle><circle r="5" cx="530.04" cy="501.26" fill="rgba(197, 14, 134, 1)"></circle><circle r="5" cx="516.05" cy="668.61" fill="rgba(197, 14, 134, 1)"></circle><circle r="5" cx="638.73" cy="229.07" fill="rgba(197, 14, 134, 1)"></circle><circle r="5" cx="702.11" cy="348.11" fill="rgba(197, 14, 134, 1)"></circle><circle r="5" cx="646.9" cy="504.27" fill="rgba(197, 14, 134, 1)"></circle><circle r="5" cx="686.08" cy="644.38" fill="rgba(197, 14, 134, 1)"></circle><circle r="5" cx="834.11" cy="106.73" fill="rgba(197, 14, 134, 1)"></circle><circle r="5" cx="856.64" cy="229.62" fill="rgba(197, 14, 134, 1)"></circle><circle r="5" cx="830.49" cy="409.78" fill="rgba(197, 14, 134, 1)"></circle><circle r="5" cx="811.62" cy="672.6" fill="rgba(197, 14, 134, 1)"></circle><circle r="5" cx="996.94" cy="-110.37" fill="rgba(197, 14, 134, 1)"></circle><circle r="5" cx="939.31" cy="105.98" fill="rgba(197, 14, 134, 1)"></circle><circle r="5" cx="958.58" cy="194.93" fill="rgba(197, 14, 134, 1)"></circle><circle r="5" cx="986.66" cy="395.25" fill="rgba(197, 14, 134, 1)"></circle><circle r="5" cx="966.08" cy="509.83" fill="rgba(197, 14, 134, 1)"></circle><circle r="5" cx="1009.81" cy="637.51" fill="rgba(197, 14, 134, 1)"></circle><circle r="5" cx="1156.54" cy="-80.46" fill="rgba(197, 14, 134, 1)"></circle><circle r="5" cx="1125.77" cy="107.6" fill="rgba(197, 14, 134, 1)"></circle><circle r="5" cx="1097.22" cy="222.97" fill="rgba(197, 14, 134, 1)"></circle><circle r="5" cx="1128.21" cy="338.93" fill="rgba(197, 14, 134, 1)"></circle><circle r="5" cx="1093.64" cy="549.19" fill="rgba(197, 14, 134, 1)"></circle><circle r="5" cx="1123.97" cy="698.83" fill="rgba(197, 14, 134, 1)"></circle><circle r="5" cx="1295.17" cy="-103.71" fill="rgba(197, 14, 134, 1)"></circle><circle r="5" cx="1264.8" cy="74.46" fill="rgba(197, 14, 134, 1)"></circle><circle r="5" cx="1264.51" cy="391.8" fill="rgba(197, 14, 134, 1)"></circle><circle r="5" cx="1288.16" cy="529.64" fill="rgba(197, 14, 134, 1)"></circle><circle r="5" cx="1399.94" cy="-51.76" fill="rgba(197, 14, 134, 1)"></circle><circle r="5" cx="1406.21" cy="111.77" fill="rgba(197, 14, 134, 1)"></circle><circle r="5" cx="1404.41" cy="240.04" fill="rgba(197, 14, 134, 1)"></circle><circle r="5" cx="1439.94" cy="392.86" fill="rgba(197, 14, 134, 1)"></circle><circle r="5" cx="1434.75" cy="511.87" fill="rgba(197, 14, 134, 1)"></circle><circle r="5" cx="1391.72" cy="640.89" fill="rgba(197, 14, 134, 1)"></circle><circle r="5" cx="1610.25" cy="-65.51" fill="rgba(197, 14, 134, 1)"></circle><circle r="5" cx="1587.47" cy="47.3" fill="rgba(197, 14, 134, 1)"></circle><circle r="5" cx="1540.23" cy="230.65" fill="rgba(197, 14, 134, 1)"></circle><circle r="5" cx="1569.13" cy="407.43" fill="rgba(197, 14, 134, 1)"></circle><circle r="5" cx="1541.68" cy="538.75" fill="rgba(197, 14, 134, 1)"></circle><circle r="5" cx="1584.81" cy="692.3" fill="rgba(197, 14, 134, 1)"></circle><path d="M37.73 528.9L37.73 528.9" stroke="hsl(247.29999999999995, 100%, 65%)" stroke-width="1.5"></path><path d="M37.73 528.9L-71.08 516.48" stroke="hsl(247.29999999999995, 100%, 65%)" stroke-width="1.5"></path><path d="M37.73 528.9L92.94 710.9" stroke="hsl(247.29999999999995, 100%, 65%)" stroke-width="1.5"></path><path d="M844.55 340.24L844.55 340.24" stroke="hsl(247.29999999999995, 100%, 65%)" stroke-width="1.5"></path><path d="M844.55 340.24L802.13 497.7" stroke="hsl(247.29999999999995, 100%, 65%)" stroke-width="1.5"></path><path d="M844.55 340.24L682.15 374.63" stroke="hsl(247.29999999999995, 100%, 65%)" stroke-width="1.5"></path><path d="M844.55 340.24L990.21 242.93" stroke="hsl(247.29999999999995, 100%, 65%)" stroke-width="1.5"></path><path d="M844.55 340.24L1009.12 401.25" stroke="hsl(247.29999999999995, 100%, 65%)" stroke-width="1.5"></path><path d="M855.15 674.05L855.15 674.05" stroke="hsl(247.29999999999995, 100%, 65%)" stroke-width="1.5"></path><path d="M855.15 674.05L1000.27 648" stroke="hsl(247.29999999999995, 100%, 65%)" stroke-width="1.5"></path><path d="M1158.34 656.07L1158.34 656.07" stroke="hsl(247.29999999999995, 100%, 65%)" stroke-width="1.5"></path><path d="M1158.34 656.07L1120.42 535.83" stroke="hsl(247.29999999999995, 100%, 65%)" stroke-width="1.5"></path><path d="M1158.34 656.07L1300.75 657.56" stroke="hsl(247.29999999999995, 100%, 65%)" stroke-width="1.5"></path><path d="M1158.34 656.07L1000.27 648" stroke="hsl(247.29999999999995, 100%, 65%)" stroke-width="1.5"></path><path d="M1158.34 656.07L1294.5 496.42" stroke="hsl(247.29999999999995, 100%, 65%)" stroke-width="1.5"></path><path d="M1158.34 656.07L1000.39 502.57" stroke="hsl(247.29999999999995, 100%, 65%)" stroke-width="1.5"></path><path d="M1263.01 89.48L1263.01 89.48" stroke="hsl(247.29999999999995, 100%, 65%)" stroke-width="1.5"></path><path d="M1263.01 89.48L1156.61 97.03" stroke="hsl(247.29999999999995, 100%, 65%)" stroke-width="1.5"></path><path d="M1263.01 89.48L1289.16 -38.67" stroke="hsl(247.29999999999995, 100%, 65%)" stroke-width="1.5"></path><path d="M1263.01 89.48L1268.33 224.4" stroke="hsl(247.29999999999995, 100%, 65%)" stroke-width="1.5"></path><path d="M1400 655.76L1400 655.76" stroke="hsl(247.29999999999995, 100%, 65%)" stroke-width="1.5"></path><path d="M1400 655.76L1300.75 657.56" stroke="hsl(247.29999999999995, 100%, 65%)" stroke-width="1.5"></path><path d="M1400 655.76L1436.71 540.81" stroke="hsl(247.29999999999995, 100%, 65%)" stroke-width="1.5"></path><path d="M1400 655.76L1294.5 496.42" stroke="hsl(247.29999999999995, 100%, 65%)" stroke-width="1.5"></path><path d="M1400 655.76L1586.87 700.98" stroke="hsl(247.29999999999995, 100%, 65%)" stroke-width="1.5"></path><path d="M1400 655.76L1582.82 540.89" stroke="hsl(247.29999999999995, 100%, 65%)" stroke-width="1.5"></path><path d="M1400 655.76L1158.34 656.07" stroke="hsl(247.29999999999995, 100%, 65%)" stroke-width="1.5"></path><path d="M1570.37 72.61L1570.37 72.61" stroke="hsl(247.29999999999995, 100%, 65%)" stroke-width="1.5"></path><path d="M1570.37 72.61L1446.75 98.97" stroke="hsl(247.29999999999995, 100%, 65%)" stroke-width="1.5"></path><path d="M1570.37 72.61L1567.44 -66.13" stroke="hsl(247.29999999999995, 100%, 65%)" stroke-width="1.5"></path><path d="M-71.08 516.48L-71.08 516.48" stroke="hsl(247.29999999999995, 100%, 65%)" stroke-width="1.5"></path><path d="M-71.08 516.48L-48 704.58" stroke="hsl(247.29999999999995, 100%, 65%)" stroke-width="1.5"></path><path d="M-71.08 516.48L92.94 710.9" stroke="hsl(247.29999999999995, 100%, 65%)" stroke-width="1.5"></path><path d="M-71.08 516.48L209.26 685.91" stroke="hsl(247.29999999999995, 100%, 65%)" stroke-width="1.5"></path><path d="M-71.08 516.48L254.92 550.77" stroke="hsl(247.29999999999995, 100%, 65%)" stroke-width="1.5"></path><path d="M-71.08 516.48L338.3 554.9" stroke="hsl(247.29999999999995, 100%, 65%)" stroke-width="1.5"></path><path d="M-48 704.58L-48 704.58" stroke="hsl(247.29999999999995, 100%, 65%)" stroke-width="1.5"></path><path d="M-48 704.58L92.94 710.9" stroke="hsl(247.29999999999995, 100%, 65%)" stroke-width="1.5"></path><path d="M-48 704.58L37.73 528.9" stroke="hsl(247.29999999999995, 100%, 65%)" stroke-width="1.5"></path><path d="M-48 704.58L209.26 685.91" stroke="hsl(247.29999999999995, 100%, 65%)" stroke-width="1.5"></path><path d="M-48 704.58L254.92 550.77" stroke="hsl(247.29999999999995, 100%, 65%)" stroke-width="1.5"></path><path d="M92.94 710.9L92.94 710.9" stroke="hsl(247.29999999999995, 100%, 65%)" stroke-width="1.5"></path><path d="M92.94 710.9L209.26 685.91" stroke="hsl(247.29999999999995, 100%, 65%)" stroke-width="1.5"></path><path d="M92.94 710.9L254.92 550.77" stroke="hsl(247.29999999999995, 100%, 65%)" stroke-width="1.5"></path><path d="M254.92 550.77L254.92 550.77" stroke="hsl(247.29999999999995, 100%, 65%)" stroke-width="1.5"></path><path d="M254.92 550.77L338.3 554.9" stroke="hsl(247.29999999999995, 100%, 65%)" stroke-width="1.5"></path><path d="M254.92 550.77L209.26 685.91" stroke="hsl(247.29999999999995, 100%, 65%)" stroke-width="1.5"></path><path d="M254.92 550.77L37.73 528.9" stroke="hsl(247.29999999999995, 100%, 65%)" stroke-width="1.5"></path><path d="M254.92 550.77L508.91 493.97" stroke="hsl(247.29999999999995, 100%, 65%)" stroke-width="1.5"></path><path d="M209.26 685.91L209.26 685.91" stroke="hsl(247.29999999999995, 100%, 65%)" stroke-width="1.5"></path><path d="M209.26 685.91L338.3 554.9" stroke="hsl(247.29999999999995, 100%, 65%)" stroke-width="1.5"></path><path d="M209.26 685.91L37.73 528.9" stroke="hsl(247.29999999999995, 100%, 65%)" stroke-width="1.5"></path><path d="M338.3 554.9L338.3 554.9" stroke="hsl(247.29999999999995, 100%, 65%)" stroke-width="1.5"></path><path d="M338.3 554.9L508.91 493.97" stroke="hsl(247.29999999999995, 100%, 65%)" stroke-width="1.5"></path><path d="M508.91 493.97L508.91 493.97" stroke="hsl(247.29999999999995, 100%, 65%)" stroke-width="1.5"></path><path d="M508.91 493.97L669.21 557.86" stroke="hsl(247.29999999999995, 100%, 65%)" stroke-width="1.5"></path><path d="M508.91 493.97L506.99 682.12" stroke="hsl(247.29999999999995, 100%, 65%)" stroke-width="1.5"></path><path d="M506.99 682.12L506.99 682.12" stroke="hsl(247.29999999999995, 100%, 65%)" stroke-width="1.5"></path><path d="M506.99 682.12L658.47 695.82" stroke="hsl(247.29999999999995, 100%, 65%)" stroke-width="1.5"></path><path d="M506.99 682.12L669.21 557.86" stroke="hsl(247.29999999999995, 100%, 65%)" stroke-width="1.5"></path><path d="M506.99 682.12L338.3 554.9" stroke="hsl(247.29999999999995, 100%, 65%)" stroke-width="1.5"></path><path d="M506.99 682.12L254.92 550.77" stroke="hsl(247.29999999999995, 100%, 65%)" stroke-width="1.5"></path><path d="M682.15 374.63L682.15 374.63" stroke="hsl(247.29999999999995, 100%, 65%)" stroke-width="1.5"></path><path d="M682.15 374.63L802.13 497.7" stroke="hsl(247.29999999999995, 100%, 65%)" stroke-width="1.5"></path><path d="M682.15 374.63L669.21 557.86" stroke="hsl(247.29999999999995, 100%, 65%)" stroke-width="1.5"></path><path d="M669.21 557.86L669.21 557.86" stroke="hsl(247.29999999999995, 100%, 65%)" stroke-width="1.5"></path><path d="M669.21 557.86L658.47 695.82" stroke="hsl(247.29999999999995, 100%, 65%)" stroke-width="1.5"></path><path d="M669.21 557.86L802.13 497.7" stroke="hsl(247.29999999999995, 100%, 65%)" stroke-width="1.5"></path><path d="M658.47 695.82L658.47 695.82" stroke="hsl(247.29999999999995, 100%, 65%)" stroke-width="1.5"></path><path d="M658.47 695.82L855.15 674.05" stroke="hsl(247.29999999999995, 100%, 65%)" stroke-width="1.5"></path><path d="M802.13 497.7L802.13 497.7" stroke="hsl(247.29999999999995, 100%, 65%)" stroke-width="1.5"></path><path d="M990.21 242.93L990.21 242.93" stroke="hsl(247.29999999999995, 100%, 65%)" stroke-width="1.5"></path><path d="M990.21 242.93L1114.92 232.13" stroke="hsl(247.29999999999995, 100%, 65%)" stroke-width="1.5"></path><path d="M990.21 242.93L1009.12 401.25" stroke="hsl(247.29999999999995, 100%, 65%)" stroke-width="1.5"></path><path d="M1009.12 401.25L1009.12 401.25" stroke="hsl(247.29999999999995, 100%, 65%)" stroke-width="1.5"></path><path d="M1009.12 401.25L1099.12 411.39" stroke="hsl(247.29999999999995, 100%, 65%)" stroke-width="1.5"></path><path d="M1009.12 401.25L1000.39 502.57" stroke="hsl(247.29999999999995, 100%, 65%)" stroke-width="1.5"></path><path d="M1009.12 401.25L1120.42 535.83" stroke="hsl(247.29999999999995, 100%, 65%)" stroke-width="1.5"></path><path d="M1000.39 502.57L1000.39 502.57" stroke="hsl(247.29999999999995, 100%, 65%)" stroke-width="1.5"></path><path d="M1000.39 502.57L1120.42 535.83" stroke="hsl(247.29999999999995, 100%, 65%)" stroke-width="1.5"></path><path d="M1000.39 502.57L1099.12 411.39" stroke="hsl(247.29999999999995, 100%, 65%)" stroke-width="1.5"></path><path d="M1000.39 502.57L1000.27 648" stroke="hsl(247.29999999999995, 100%, 65%)" stroke-width="1.5"></path><path d="M1000.39 502.57L802.13 497.7" stroke="hsl(247.29999999999995, 100%, 65%)" stroke-width="1.5"></path><path d="M1000.27 648L1000.27 648" stroke="hsl(247.29999999999995, 100%, 65%)" stroke-width="1.5"></path><path d="M1158.97 -98.05L1158.97 -98.05" stroke="hsl(247.29999999999995, 100%, 65%)" stroke-width="1.5"></path><path d="M1158.97 -98.05L1289.16 -38.67" stroke="hsl(247.29999999999995, 100%, 65%)" stroke-width="1.5"></path><path d="M1158.97 -98.05L1156.61 97.03" stroke="hsl(247.29999999999995, 100%, 65%)" stroke-width="1.5"></path><path d="M1156.61 97.03L1156.61 97.03" stroke="hsl(247.29999999999995, 100%, 65%)" stroke-width="1.5"></path><path d="M1156.61 97.03L1114.92 232.13" stroke="hsl(247.29999999999995, 100%, 65%)" stroke-width="1.5"></path><path d="M1156.61 97.03L1268.33 224.4" stroke="hsl(247.29999999999995, 100%, 65%)" stroke-width="1.5"></path><path d="M1156.61 97.03L1289.16 -38.67" stroke="hsl(247.29999999999995, 100%, 65%)" stroke-width="1.5"></path><path d="M1114.92 232.13L1114.92 232.13" stroke="hsl(247.29999999999995, 100%, 65%)" stroke-width="1.5"></path><path d="M1114.92 232.13L1268.33 224.4" stroke="hsl(247.29999999999995, 100%, 65%)" stroke-width="1.5"></path><path d="M1114.92 232.13L1099.12 411.39" stroke="hsl(247.29999999999995, 100%, 65%)" stroke-width="1.5"></path><path d="M1114.92 232.13L1009.12 401.25" stroke="hsl(247.29999999999995, 100%, 65%)" stroke-width="1.5"></path><path d="M1099.12 411.39L1099.12 411.39" stroke="hsl(247.29999999999995, 100%, 65%)" stroke-width="1.5"></path><path d="M1099.12 411.39L1120.42 535.83" stroke="hsl(247.29999999999995, 100%, 65%)" stroke-width="1.5"></path><path d="M1120.42 535.83L1120.42 535.83" stroke="hsl(247.29999999999995, 100%, 65%)" stroke-width="1.5"></path><path d="M1120.42 535.83L1000.27 648" stroke="hsl(247.29999999999995, 100%, 65%)" stroke-width="1.5"></path><path d="M1289.16 -38.67L1289.16 -38.67" stroke="hsl(247.29999999999995, 100%, 65%)" stroke-width="1.5"></path><path d="M1289.16 -38.67L1410.25 -50.39" stroke="hsl(247.29999999999995, 100%, 65%)" stroke-width="1.5"></path><path d="M1289.16 -38.67L1446.75 98.97" stroke="hsl(247.29999999999995, 100%, 65%)" stroke-width="1.5"></path><path d="M1268.33 224.4L1268.33 224.4" stroke="hsl(247.29999999999995, 100%, 65%)" stroke-width="1.5"></path><path d="M1268.33 224.4L1303.24 389.22" stroke="hsl(247.29999999999995, 100%, 65%)" stroke-width="1.5"></path><path d="M1303.24 389.22L1303.24 389.22" stroke="hsl(247.29999999999995, 100%, 65%)" stroke-width="1.5"></path><path d="M1303.24 389.22L1294.5 496.42" stroke="hsl(247.29999999999995, 100%, 65%)" stroke-width="1.5"></path><path d="M1303.24 389.22L1436.24 340.07" stroke="hsl(247.29999999999995, 100%, 65%)" stroke-width="1.5"></path><path d="M1303.24 389.22L1436.71 540.81" stroke="hsl(247.29999999999995, 100%, 65%)" stroke-width="1.5"></path><path d="M1303.24 389.22L1099.12 411.39" stroke="hsl(247.29999999999995, 100%, 65%)" stroke-width="1.5"></path><path d="M1294.5 496.42L1294.5 496.42" stroke="hsl(247.29999999999995, 100%, 65%)" stroke-width="1.5"></path><path d="M1294.5 496.42L1436.71 540.81" stroke="hsl(247.29999999999995, 100%, 65%)" stroke-width="1.5"></path><path d="M1294.5 496.42L1300.75 657.56" stroke="hsl(247.29999999999995, 100%, 65%)" stroke-width="1.5"></path><path d="M1294.5 496.42L1120.42 535.83" stroke="hsl(247.29999999999995, 100%, 65%)" stroke-width="1.5"></path><path d="M1300.75 657.56L1300.75 657.56" stroke="hsl(247.29999999999995, 100%, 65%)" stroke-width="1.5"></path><path d="M1410.25 -50.39L1410.25 -50.39" stroke="hsl(247.29999999999995, 100%, 65%)" stroke-width="1.5"></path><path d="M1410.25 -50.39L1446.75 98.97" stroke="hsl(247.29999999999995, 100%, 65%)" stroke-width="1.5"></path><path d="M1410.25 -50.39L1567.44 -66.13" stroke="hsl(247.29999999999995, 100%, 65%)" stroke-width="1.5"></path><path d="M1446.75 98.97L1446.75 98.97" stroke="hsl(247.29999999999995, 100%, 65%)" stroke-width="1.5"></path><path d="M1446.75 98.97L1456.14 196.86" stroke="hsl(247.29999999999995, 100%, 65%)" stroke-width="1.5"></path><path d="M1446.75 98.97L1263.01 89.48" stroke="hsl(247.29999999999995, 100%, 65%)" stroke-width="1.5"></path><path d="M1456.14 196.86L1456.14 196.86" stroke="hsl(247.29999999999995, 100%, 65%)" stroke-width="1.5"></path><path d="M1456.14 196.86L1436.24 340.07" stroke="hsl(247.29999999999995, 100%, 65%)" stroke-width="1.5"></path><path d="M1436.24 340.07L1436.24 340.07" stroke="hsl(247.29999999999995, 100%, 65%)" stroke-width="1.5"></path><path d="M1436.24 340.07L1560.07 344.65" stroke="hsl(247.29999999999995, 100%, 65%)" stroke-width="1.5"></path><path d="M1436.24 340.07L1436.71 540.81" stroke="hsl(247.29999999999995, 100%, 65%)" stroke-width="1.5"></path><path d="M1436.24 340.07L1268.33 224.4" stroke="hsl(247.29999999999995, 100%, 65%)" stroke-width="1.5"></path><path d="M1436.71 540.81L1436.71 540.81" stroke="hsl(247.29999999999995, 100%, 65%)" stroke-width="1.5"></path><path d="M1436.71 540.81L1582.82 540.89" stroke="hsl(247.29999999999995, 100%, 65%)" stroke-width="1.5"></path><path d="M1567.44 -66.13L1567.44 -66.13" stroke="hsl(247.29999999999995, 100%, 65%)" stroke-width="1.5"></path><path d="M1567.44 -66.13L1446.75 98.97" stroke="hsl(247.29999999999995, 100%, 65%)" stroke-width="1.5"></path><path d="M1567.44 -66.13L1289.16 -38.67" stroke="hsl(247.29999999999995, 100%, 65%)" stroke-width="1.5"></path><path d="M1567.44 -66.13L1456.14 196.86" stroke="hsl(247.29999999999995, 100%, 65%)" stroke-width="1.5"></path><path d="M1609.5 218.96L1609.5 218.96" stroke="hsl(247.29999999999995, 100%, 65%)" stroke-width="1.5"></path><path d="M1609.5 218.96L1560.07 344.65" stroke="hsl(247.29999999999995, 100%, 65%)" stroke-width="1.5"></path><path d="M1609.5 218.96L1570.37 72.61" stroke="hsl(247.29999999999995, 100%, 65%)" stroke-width="1.5"></path><path d="M1609.5 218.96L1456.14 196.86" stroke="hsl(247.29999999999995, 100%, 65%)" stroke-width="1.5"></path><path d="M1609.5 218.96L1446.75 98.97" stroke="hsl(247.29999999999995, 100%, 65%)" stroke-width="1.5"></path><path d="M1609.5 218.96L1436.24 340.07" stroke="hsl(247.29999999999995, 100%, 65%)" stroke-width="1.5"></path><path d="M1609.5 218.96L1567.44 -66.13" stroke="hsl(247.29999999999995, 100%, 65%)" stroke-width="1.5"></path><path d="M1560.07 344.65L1560.07 344.65" stroke="hsl(247.29999999999995, 100%, 65%)" stroke-width="1.5"></path><path d="M1560.07 344.65L1456.14 196.86" stroke="hsl(247.29999999999995, 100%, 65%)" stroke-width="1.5"></path><path d="M1582.82 540.89L1582.82 540.89" stroke="hsl(247.29999999999995, 100%, 65%)" stroke-width="1.5"></path><path d="M1582.82 540.89L1586.87 700.98" stroke="hsl(247.29999999999995, 100%, 65%)" stroke-width="1.5"></path><path d="M1582.82 540.89L1560.07 344.65" stroke="hsl(247.29999999999995, 100%, 65%)" stroke-width="1.5"></path><path d="M1582.82 540.89L1436.24 340.07" stroke="hsl(247.29999999999995, 100%, 65%)" stroke-width="1.5"></path><path d="M1582.82 540.89L1294.5 496.42" stroke="hsl(247.29999999999995, 100%, 65%)" stroke-width="1.5"></path><path d="M1586.87 700.98L1586.87 700.98" stroke="hsl(247.29999999999995, 100%, 65%)" stroke-width="1.5"></path><circle r="25" cx="37.73" cy="528.9" fill="url(&quot;#SvgjsRadialGradient1482&quot;)"></circle><circle r="25" cx="844.55" cy="340.24" fill="url(&quot;#SvgjsRadialGradient1482&quot;)"></circle><circle r="25" cx="855.15" cy="674.05" fill="url(&quot;#SvgjsRadialGradient1482&quot;)"></circle><circle r="25" cx="1158.34" cy="656.07" fill="url(&quot;#SvgjsRadialGradient1482&quot;)"></circle><circle r="25" cx="1263.01" cy="89.48" fill="url(&quot;#SvgjsRadialGradient1482&quot;)"></circle><circle r="25" cx="1400" cy="655.76" fill="url(&quot;#SvgjsRadialGradient1482&quot;)"></circle><circle r="25" cx="1570.37" cy="72.61" fill="url(&quot;#SvgjsRadialGradient1482&quot;)"></circle><circle r="5" cx="-71.08" cy="516.48" fill="#8f80ff"></circle><circle r="5" cx="-48" cy="704.58" fill="#8f80ff"></circle><circle r="5" cx="92.94" cy="710.9" fill="#8f80ff"></circle><circle r="5" cx="254.92" cy="550.77" fill="#8f80ff"></circle><circle r="5" cx="209.26" cy="685.91" fill="#8f80ff"></circle><circle r="5" cx="338.3" cy="554.9" fill="#8f80ff"></circle><circle r="5" cx="508.91" cy="493.97" fill="#8f80ff"></circle><circle r="5" cx="506.99" cy="682.12" fill="#8f80ff"></circle><circle r="5" cx="682.15" cy="374.63" fill="#8f80ff"></circle><circle r="5" cx="669.21" cy="557.86" fill="#8f80ff"></circle><circle r="5" cx="658.47" cy="695.82" fill="#8f80ff"></circle><circle r="5" cx="802.13" cy="497.7" fill="#8f80ff"></circle><circle r="5" cx="990.21" cy="242.93" fill="#8f80ff"></circle><circle r="5" cx="1009.12" cy="401.25" fill="#8f80ff"></circle><circle r="5" cx="1000.39" cy="502.57" fill="#8f80ff"></circle><circle r="5" cx="1000.27" cy="648" fill="#8f80ff"></circle><circle r="5" cx="1158.97" cy="-98.05" fill="#8f80ff"></circle><circle r="5" cx="1156.61" cy="97.03" fill="#8f80ff"></circle><circle r="5" cx="1114.92" cy="232.13" fill="#8f80ff"></circle><circle r="5" cx="1099.12" cy="411.39" fill="#8f80ff"></circle><circle r="5" cx="1120.42" cy="535.83" fill="#8f80ff"></circle><circle r="5" cx="1289.16" cy="-38.67" fill="#8f80ff"></circle><circle r="5" cx="1268.33" cy="224.4" fill="#8f80ff"></circle><circle r="5" cx="1303.24" cy="389.22" fill="#8f80ff"></circle><circle r="5" cx="1294.5" cy="496.42" fill="#8f80ff"></circle><circle r="5" cx="1300.75" cy="657.56" fill="#8f80ff"></circle><circle r="5" cx="1410.25" cy="-50.39" fill="#8f80ff"></circle><circle r="5" cx="1446.75" cy="98.97" fill="#8f80ff"></circle><circle r="5" cx="1456.14" cy="196.86" fill="#8f80ff"></circle><circle r="5" cx="1436.24" cy="340.07" fill="#8f80ff"></circle><circle r="5" cx="1436.71" cy="540.81" fill="#8f80ff"></circle><circle r="5" cx="1567.44" cy="-66.13" fill="#8f80ff"></circle><circle r="5" cx="1609.5" cy="218.96" fill="#8f80ff"></circle><circle r="5" cx="1560.07" cy="344.65" fill="#8f80ff"></circle><circle r="5" cx="1582.82" cy="540.89" fill="#8f80ff"></circle><circle r="5" cx="1586.87" cy="700.98" fill="#8f80ff"></circle></g><defs><mask id="SvgjsMask1480"><rect width="1440" height="560" fill="#ffffff"></rect></mask><radialGradient cx="0%" cy="0%" r="1545.06" gradientUnits="userSpaceOnUse" id="SvgjsRadialGradient1481"><stop stop-color="#0e2a47" offset="0"></stop><stop stop-color="rgba(0, 243, 127, 1)" offset="1"></stop></radialGradient><radialGradient id="SvgjsRadialGradient1482"><stop stop-color="#ffffff" offset="0.1"></stop><stop stop-color="rgba(31, 0, 255, 1)" offset="0.2"></stop><stop stop-color="rgba(31, 0, 255, 0)" offset="1"></stop></radialGradient></defs></svg>