<svg xmlns="http://www.w3.org/2000/svg" version="1.1" xmlns:xlink="http://www.w3.org/1999/xlink" xmlns:svgjs="http://svgjs.dev/svgjs" width="1440" height="560" preserveAspectRatio="none" viewBox="0 0 1440 560"><g mask="url(&quot;#SvgjsMask1141&quot;)" fill="none"><rect width="1440" height="560" x="0" y="0" fill="rgba(81, 46, 95, 1)"></rect><path d="M0,479.167C101.83,488.528,206.542,508.076,300.329,467.322C401.686,423.278,500.807,349.728,537.651,245.537C573.897,143.036,500.284,37.756,490.521,-70.526C480.01,-187.096,535.121,-312.079,478.154,-414.323C418.302,-521.745,304.713,-606.26,182.851,-622.732C64.218,-638.767,-44.373,-561.294,-146.446,-498.748C-228.167,-448.673,-275.383,-364.773,-345.233,-299.146C-425.477,-223.752,-544.891,-186.026,-587.395,-84.455C-633.374,25.422,-645.873,165.337,-581.552,265.586C-517.528,365.372,-378.113,374.31,-266.822,415.183C-179.192,447.366,-92.961,470.621,0,479.167" fill="#351e3e"></path><path d="M1440 999.352C1522.058 999.991 1588.58 941.871 1662.459 906.153 1747.7730000000001 864.9069999999999 1863.978 857.6859999999999 1907.32 773.418 1950.548 689.371 1894.946 589.622 1872.48 497.819 1852.161 414.789 1839.665 326.774 1782.47 263.248 1725.759 200.25900000000001 1643.721 164.878 1560.127 150.88600000000002 1482.148 137.834 1409.324 179.675 1330.661 187.62400000000002 1228.631 197.93400000000003 1111.417 142.51 1029.713 204.485 948.8620000000001 265.813 925.92 386.41200000000003 935.392 487.448 944.202 581.417 1025.192 647.211 1078.519 725.083 1122.142 788.785 1158.251 856.037 1219.758 902.704 1284.9470000000001 952.165 1358.173 998.7139999999999 1440 999.352" fill="#6d3e80"></path></g><defs><mask id="SvgjsMask1141"><rect width="1440" height="560" fill="#ffffff"></rect></mask></defs></svg>